<svg id="Layer_1" data-name="Layer 1" xmlns="http://www.w3.org/2000/svg" width="23.14356" height="18.69229" viewBox="0 0 23.14356 18.69229">
  <defs>
    <style>
      .cls-1, .cls-2 {
        fill: none;
        stroke-linecap: round;
        stroke-linejoin: round;
        stroke-width: 2px;
      }

      .cls-1 {
        stroke: #000;
      }

      .cls-2 {
        stroke: #840d1c;
      }
    </style>
  </defs>
  <path class="cls-1" d="M12.12819,2.11282H4.561a5.52928,5.52928,0,0,0-2.3458.24258,2.2255,2.2255,0,0,0-.97264.97264A5.52928,5.52928,0,0,0,1,5.67384v8.45743a5.52936,5.52936,0,0,0,.24258,2.34582,2.22536,2.22536,0,0,0,.97264.9726,5.52885,5.52885,0,0,0,2.3458.2426h12.9087a5.529,5.529,0,0,0,2.34583-.2426,2.22522,2.22522,0,0,0,.9726-.9726,5.52893,5.52893,0,0,0,.2426-2.34582v-3.1159M1,5.45128,7.06527,9.49482a10.06471,10.06471,0,0,0,2.91229,1.61225,4.45379,4.45379,0,0,0,2.07563,0,10.06489,10.06489,0,0,0,2.91225-1.61225"/>
  <circle class="cls-2" cx="19.36152" cy="3.78205" r="2.78205"/>
</svg>
