<?xml version="1.0" encoding="utf-8"?>
<!-- Generator: Adobe Illustrator 26.3.1, SVG Export Plug-In . SVG Version: 6.00 Build 0)  -->
<svg version="1.1" id="Layer_1" xmlns="http://www.w3.org/2000/svg" xmlns:xlink="http://www.w3.org/1999/xlink" x="0px" y="0px"
	 width="22.6px" height="22.3px" viewBox="0 0 22.6 22.3" style="enable-background:new 0 0 22.6 22.3;" xml:space="preserve">
<style type="text/css">
	.st0{fill:#0D0D0D;}
</style>
<path class="st0" d="M1.2,5.8c0-1.1,0.9-2,2-2h16c1.1,0,2,0.9,2,2v2c0,0.7-0.4,1.4-1,1.7c0,0.1,0,0.2,0,0.3v10c0,1.1-0.9,2-2,2h-14
	c-1.1,0-2-0.9-2-2v-10c0-0.1,0-0.2,0-0.3c-0.6-0.4-1-1-1-1.7V5.8z M19.2,7.8v-2h-16v2H19.2z M4.2,9.8v10h14v-10H4.2z M7.2,12.8
	c0-0.6,0.4-1,1-1h6c0.6,0,1,0.4,1,1s-0.4,1-1,1h-6C7.6,13.8,7.2,13.3,7.2,12.8z"/>
</svg>
