<?xml version="1.0" encoding="utf-8"?>
<!-- Generator: Adobe Illustrator 26.3.1, SVG Export Plug-In . SVG Version: 6.00 Build 0)  -->
<svg version="1.1" id="Layer_1" xmlns="http://www.w3.org/2000/svg" xmlns:xlink="http://www.w3.org/1999/xlink" x="0px" y="0px"
	 width="24px" height="24px" viewBox="0 0 24 24" style="enable-background:new 0 0 24 24;" xml:space="preserve">
<style type="text/css">
	.st0{fill:none;stroke:#000000;stroke-width:2;stroke-linecap:round;stroke-linejoin:round;}
	.st1{fill:none;stroke:#840D1C;stroke-width:2;stroke-linecap:round;stroke-linejoin:round;}
</style>
<path class="st0" d="M12.7,5.7H5.1c-1.2,0-1.9,0-2.3,0.2c-0.4,0.2-0.8,0.6-1,1C1.6,7.4,1.6,8,1.6,9.3v8.5c0,1.2,0,1.9,0.2,2.3
	c0.2,0.4,0.6,0.8,1,1c0.5,0.2,1.1,0.2,2.3,0.2h12.9c1.2,0,1.9,0,2.3-0.2c0.4-0.2,0.8-0.6,1-1c0.2-0.5,0.2-1.1,0.2-2.3v-3.1 M1.6,9.1
	l6.1,4c1.4,1,2.1,1.4,2.9,1.6c0.7,0.2,1.4,0.2,2.1,0c0.8-0.2,1.5-0.7,2.9-1.6"/>
<circle class="st1" cx="19.9" cy="7.4" r="2.8"/>
</svg>
